<svg data-v-423bf9ae="" xmlns="http://www.w3.org/2000/svg" viewBox="0 0 333.3428846086774 163" class="iconAbove"><!----><!----><!----><g data-v-423bf9ae="" id="6f4f3057-bcf4-4572-b13f-eb8ef521892b" fill="black" transform="matrix(4.285714285714286,0,0,4.285714285714286,-3.0000029035977036,95.79999947547913)"><path d="M8.61 9.38C8.61 8.28 8.32 7.44 7.73 6.87C7.14 6.30 6.44 6.02 5.63 6.02C4.63 6.02 3.90 6.41 3.43 7.20L3.43 6.16L0.70 6.16L0.70 15.68L3.43 15.68L3.43 11.56C3.90 12.35 4.63 12.74 5.63 12.74C6.44 12.74 7.14 12.46 7.73 11.89C8.32 11.32 8.61 10.48 8.61 9.38ZM5.73 9.38C5.73 9.73 5.62 10.00 5.40 10.20C5.18 10.40 4.90 10.50 4.58 10.50C4.27 10.50 4.00 10.40 3.77 10.21C3.54 10.02 3.43 9.74 3.43 9.38C3.43 9.02 3.54 8.74 3.77 8.55C4.00 8.36 4.27 8.26 4.58 8.26C4.90 8.26 5.18 8.36 5.40 8.56C5.62 8.76 5.73 9.03 5.73 9.38ZM10.72 8.29C11.38 7.96 12.09 7.80 12.85 7.80C13.19 7.80 13.44 7.87 13.61 8.03C13.78 8.18 13.86 8.39 13.86 8.65L13.86 8.97C13.43 8.73 12.85 8.61 12.12 8.61C11.38 8.61 10.72 8.79 10.16 9.13C9.59 9.48 9.31 10.03 9.31 10.78C9.31 11.41 9.52 11.90 9.93 12.24C10.34 12.57 10.94 12.74 11.73 12.74C12.79 12.74 13.50 12.41 13.86 11.75L13.86 12.60L16.45 12.60L16.45 7.98C16.45 7.32 16.14 6.81 15.53 6.47C14.92 6.12 14.12 5.95 13.13 5.95C11.96 5.95 10.88 6.14 9.90 6.52ZM12.05 10.58C12.05 10.39 12.13 10.24 12.29 10.13C12.44 10.02 12.64 9.97 12.88 9.97C13.26 9.97 13.58 10.02 13.85 10.14C13.78 10.74 13.40 11.05 12.71 11.05C12.27 11.05 12.05 10.89 12.05 10.58ZM22.88 8.93L23.98 6.58C23.64 6.16 23.12 5.95 22.43 5.95C21.64 5.95 21.00 6.30 20.51 7.01L20.51 6.16L17.85 6.16L17.85 12.60L20.51 12.60L20.51 9.66C20.51 9.22 20.62 8.91 20.84 8.74C21.06 8.56 21.38 8.47 21.80 8.47C22.26 8.47 22.61 8.62 22.88 8.93ZM25.45 3.92L25.45 6.16L24.40 6.16L24.40 8.33L25.45 8.33L25.45 12.60L28.04 12.60L28.04 8.33L29.09 8.33L29.09 6.16L28.04 6.16L28.04 3.92ZM29.23 6.16L32.21 12.32L30.77 15.68L33.57 15.68L37.77 6.16L34.97 6.16L33.57 9.66L32.17 6.16ZM38.26 1.68L38.26 12.60L40.99 12.60L40.99 1.68ZM42.18 3.89C42.18 4.29 42.33 4.62 42.62 4.88C42.91 5.14 43.26 5.26 43.69 5.26C44.12 5.26 44.48 5.14 44.77 4.88C45.06 4.62 45.21 4.29 45.21 3.89C45.21 3.49 45.06 3.16 44.77 2.90C44.48 2.65 44.12 2.52 43.69 2.52C43.26 2.52 42.91 2.65 42.62 2.90C42.33 3.16 42.18 3.49 42.18 3.89ZM42.38 6.16L42.38 12.60L45.00 12.60L45.00 6.16ZM49.13 8.68C49.13 8.06 49.39 7.76 49.92 7.76C50.19 7.76 50.36 7.83 50.46 7.98C50.55 8.13 50.60 8.36 50.60 8.68L50.60 12.60L53.47 12.60L53.47 8.26C53.47 7.53 53.28 6.97 52.92 6.59C52.56 6.20 51.95 6.01 51.11 6.01C50.19 6.01 49.53 6.38 49.13 7.13L49.13 6.16L46.40 6.16L46.40 12.60L49.13 12.60ZM54.87 1.68L54.87 12.60L57.46 12.60L57.46 9.25L60.12 12.60L63.27 12.60L60.26 8.82L62.99 6.16L59.78 6.16L57.46 8.43L57.46 1.68ZM68.26 8.41L66.37 8.41C66.50 7.84 66.84 7.56 67.37 7.56C67.87 7.56 68.17 7.84 68.26 8.41ZM66.33 9.94L71.15 9.94C71.17 9.76 71.18 9.53 71.18 9.25C71.18 8.23 70.85 7.42 70.19 6.83C69.53 6.24 68.61 5.95 67.44 5.95C66.24 5.95 65.30 6.27 64.60 6.92C63.90 7.56 63.55 8.38 63.55 9.38C63.55 10.39 63.88 11.20 64.55 11.82C65.21 12.43 66.18 12.74 67.44 12.74C68.41 12.74 69.22 12.56 69.87 12.21C70.53 11.85 70.98 11.34 71.23 10.68L68.75 10.29C68.69 10.54 68.55 10.71 68.33 10.79C68.12 10.88 67.82 10.92 67.44 10.92C66.81 10.92 66.44 10.59 66.33 9.94ZM77.38 8.93L78.48 6.58C78.14 6.16 77.62 5.95 76.93 5.95C76.15 5.95 75.51 6.30 75.01 7.01L75.01 6.16L72.35 6.16L72.35 12.60L75.01 12.60L75.01 9.66C75.01 9.22 75.12 8.91 75.34 8.74C75.56 8.56 75.88 8.47 76.30 8.47C76.76 8.47 77.12 8.62 77.38 8.93Z"></path></g><!----><g data-v-423bf9ae="" id="5dd7ab9d-1d11-47bd-9fab-3308c196673f" transform="matrix(1.162790903985827,0,0,1.162790903985827,107.24851877277536,-12.839537246089748)" stroke="none" fill="black"><path d="M76 57.4l-7.8 10c-.3.4-.3.9 0 1.3s.7.7 1.1 1.1c1.3 1.1 3 1.6 4.6 1.6.3 0 .6 0 .9-.1 2-.2 3.8-1.2 5-2.8 1.2-1.6 1.8-3.5 1.6-5.5-.2-2-1.2-3.8-2.8-5-.4-.3-.9-.6-1.4-.9-.4-.2-.9 0-1.2.3zm3.4 5.9c.2 1.5-.2 2.9-1.2 4-.9 1.2-2.2 1.9-3.7 2-1.5.2-2.9-.2-4-1.2-.1-.1-.2-.1-.2-.2l6.8-8.6c.1.1.2.2.3.2 1.1 1 1.9 2.3 2 3.8z"></path><path d="M76.4 64.5c-.4-.3-1.1-.3-1.4.2-.3.4-.3 1.1.2 1.4l.6.5c.2.1.4.2.6.2.3 0 .6-.1.8-.4.3-.4.3-1.1-.2-1.4l-.6-.5zM73.7 65.7c-.6 0-1 .4-1 1v1.1c0 .6.4 1 1 1 .5 0 1-.4 1-1v-1.1c0-.5-.4-1-1-1zM75.7 63.2c.1.5.5.8 1 .8h.2l1-.2c.5-.1.9-.7.7-1.2-.1-.5-.7-.9-1.2-.7l-1 .2c-.5.1-.8.6-.7 1.1zM75.3 44.8c-1.6-1.2-3.6-1.7-5.6-1.4-2 .3-3.7 1.4-4.9 3-.3.4-.6.9-.8 1.4-.2.4-.1.9.3 1.2l10.3 7.5c.2.1.4.2.6.2.2 0 .5-.1.7-.3.4-.3.7-.7 1-1.1 2.5-3.4 1.8-8.1-1.6-10.5zm0 9.3c-.1.1-.1.2-.2.2l-8.9-6.4c.1-.1.1-.2.2-.3.9-1.2 2.1-2 3.6-2.2 1.5-.2 2.9.1 4.1 1 2.5 1.8 3 5.2 1.2 7.7z"></path><path d="M73.5 49c.3-.4.2-1.1-.2-1.4-.4-.3-1.1-.2-1.4.2l-.4.6c-.3.4-.2 1.1.2 1.4.2.1.4.2.6.2.3 0 .6-.1.8-.4l.4-.6zM73.7 50c-.6 0-1 .5-1 1s.5 1 1 1h1.1c.6 0 1-.5 1-1 0-.6-.5-1-1-1h-1.1zM70.6 46.9c-.2-.5-.7-.8-1.2-.7-.5.2-.8.7-.7 1.2l.3 1c.1.4.5.7 1 .7h.3c.5-.2.8-.7.7-1.2l-.4-1z"></path><path d="M54.4 28.8c-.1.3-.1.7.1 1 .1.1 6.6 9.1 6.4 19.4-.5 17.3 4.5 26.5 14.6 27.7l1.8 8.6-5.6 1.2c-.5.1-.9.6-.8 1.2.1.5.5.8 1 .8h.2L85.2 86c.5-.1.9-.6.8-1.2-.1-.5-.6-.9-1.2-.8l-5.5 1-1.8-8.5c9-5.1 9.9-15.6 2.5-31.3-4.3-9.3-1.9-20.2-1.9-20.3.1-.3 0-.7-.3-.9-.2-.2-.6-.3-.9-.3l-21.8 4.5c-.3 0-.6.3-.7.6zM78.2 46c7 15 6.3 24.4-2 28.9-9.4-.8-13.8-9.2-13.3-25.7.1-3.7-.6-7.3-1.6-10.4l.1-.1c.8-1 1.6-1.8 3.2-2.1 1.6-.3 2.6.1 3.8.7 1.3.6 2.8 1.3 5 .9 1-.2 1.8-.6 2.4-1 .3 2.8 1.1 5.9 2.4 8.8zm-2.3-20.1c-.3 1.8-.6 5-.4 8.8-.7.7-1.3 1.2-2.6 1.5-1.6.3-2.6-.1-3.8-.7-1.3-.6-2.8-1.3-5-.9-1.8.4-2.8 1.2-3.7 2.1-1.2-3.1-2.6-5.5-3.5-6.9l19-3.9zM55.7 11.3c-.6 0-1 .4-1 1v5.9c0 .6.4 1 1 1s1-.4 1-1v-5.9c0-.5-.5-1-1-1zM59.8 20.7c.2 0 .3 0 .5-.1l5.1-2.9c.5-.3.6-.9.4-1.4s-.9-.6-1.4-.4l-5.1 2.9c-.5.3-.6.9-.4 1.4.2.3.6.5.9.5zM18.7 74.8c-.5-.2-1.1.1-1.3.6-.2.5.1 1.1.6 1.3l12.6 4.4c.1 0 .2.1.3.1.4 0 .8-.3.9-.7.2-.5-.1-1.1-.6-1.3l-5.4-1.9 3-8.5 4.9 1.7c.3.1.7.2 1 .2 1.1 0 2-.6 2.4-1.5l17.5-44.5c.1-.3.1-.7 0-1-.2-.4-.5-.6-.8-.8l-17.4-6.1c-.4-.1-.8-.1-1.1.1-.3.2-.6.4-.7.8L20.4 63.3c-.4 1.3.4 2.7 1.8 3.2l4.9 1.7-3 8.5-5.4-1.9zM36.4 19l16.2 5.7-1.5 3.8c-.8-.9-1.9-1.9-3.7-2.5-2.5-.9-4.2-.4-5.7-.1-1.4.4-2.6.7-4.5 0-1.2-.4-2-1-2.5-1.6l1.7-5.3zM22.3 63.9l11.8-37.5c.6.5 1.4 1 2.5 1.4 2.5.9 4.2.4 5.7.1 1.4-.4 2.6-.7 4.5 0s2.6 1.6 3.5 2.8L35.4 68.5c-.1.2-.5.3-.9.2l-11.7-4.1c-.4-.1-.6-.5-.5-.7z"></path><path d="M37.2 39.4c-.4.2-.8.6-.9 1-.2.5-.1 1 .1 1.4l1.6 3.3c.3.7 1 1 1.6 1 .3 0 .5-.1.8-.2l3.3-1.6c.4-.2.8-.6.9-1 .2-.5.1-1-.1-1.4L43 38.7c-.4-.9-1.5-1.3-2.4-.9l-3.4 1.6zm5.5 3.3l-3 1.4-1.4-3 3-1.4 1.4 3zM35 51.6c.8 0 1.6-.6 1.8-1.5l.7-3.6c.2-1-.4-1.9-1.4-2.1l-3.6-.7c-.5-.1-1 0-1.4.3-.4.3-.7.7-.8 1.2l-.7 3.6c-.2 1 .4 1.9 1.4 2.1l3.6.7c.2-.1.3 0 .4 0zm-2.7-6l3.3.7-.7 3.3-3.3-.7.7-3.3zM35.5 37.5h.1l3.7-.2c1-.1 1.8-.9 1.7-1.9l-.2-3.7c0-.5-.2-.9-.6-1.3-.4-.3-.8-.5-1.3-.5l-3.7.2c-1 .1-1.8.9-1.7 1.9l.2 3.7c.1 1.1.9 1.8 1.8 1.8zm3.4-5.5l.2 3.3-3.3.2-.2-3.3 3.3-.2z"></path></g><!----></svg>