<svg data-v-fde0c5aa="" xmlns="http://www.w3.org/2000/svg" viewBox="0 0 300 300" class="font"><!----><defs data-v-fde0c5aa=""><!----></defs><rect data-v-fde0c5aa="" fill="#ECE9F4" x="0" y="0" width="300px" height="300px" class="logo-background-square"></rect><defs data-v-fde0c5aa=""><!----></defs><g data-v-fde0c5aa="" id="b3de6379-f34a-4831-855b-568e528aef78" fill="#282335" transform="matrix(2.828490381500103,0,0,2.828490381500103,38.02005676666816,125.448703299757)"><path d="M8.61 9.38C8.61 8.28 8.32 7.44 7.73 6.87C7.14 6.30 6.44 6.02 5.63 6.02C4.63 6.02 3.90 6.41 3.43 7.20L3.43 6.16L0.70 6.16L0.70 15.68L3.43 15.68L3.43 11.56C3.90 12.35 4.63 12.74 5.63 12.74C6.44 12.74 7.14 12.46 7.73 11.89C8.32 11.32 8.61 10.48 8.61 9.38ZM5.73 9.38C5.73 9.73 5.62 10.00 5.40 10.20C5.18 10.40 4.90 10.50 4.58 10.50C4.27 10.50 4.00 10.40 3.77 10.21C3.54 10.02 3.43 9.74 3.43 9.38C3.43 9.02 3.54 8.74 3.77 8.55C4.00 8.36 4.27 8.26 4.58 8.26C4.90 8.26 5.18 8.36 5.40 8.56C5.62 8.76 5.73 9.03 5.73 9.38ZM10.72 8.29C11.38 7.96 12.09 7.80 12.85 7.80C13.19 7.80 13.44 7.87 13.61 8.03C13.78 8.18 13.86 8.39 13.86 8.65L13.86 8.97C13.43 8.73 12.85 8.61 12.12 8.61C11.38 8.61 10.72 8.79 10.16 9.13C9.59 9.48 9.31 10.03 9.31 10.78C9.31 11.41 9.52 11.90 9.93 12.24C10.34 12.57 10.94 12.74 11.73 12.74C12.79 12.74 13.50 12.41 13.86 11.75L13.86 12.60L16.45 12.60L16.45 7.98C16.45 7.32 16.14 6.81 15.53 6.47C14.92 6.12 14.12 5.95 13.13 5.95C11.96 5.95 10.88 6.14 9.90 6.52ZM12.05 10.58C12.05 10.39 12.13 10.24 12.29 10.13C12.44 10.02 12.64 9.97 12.88 9.97C13.26 9.97 13.58 10.02 13.85 10.14C13.78 10.74 13.40 11.05 12.71 11.05C12.27 11.05 12.05 10.89 12.05 10.58ZM22.88 8.93L23.98 6.58C23.64 6.16 23.12 5.95 22.43 5.95C21.64 5.95 21.00 6.30 20.51 7.01L20.51 6.16L17.85 6.16L17.85 12.60L20.51 12.60L20.51 9.66C20.51 9.22 20.62 8.91 20.84 8.74C21.06 8.56 21.38 8.47 21.80 8.47C22.26 8.47 22.61 8.62 22.88 8.93ZM25.45 3.92L25.45 6.16L24.40 6.16L24.40 8.33L25.45 8.33L25.45 12.60L28.04 12.60L28.04 8.33L29.09 8.33L29.09 6.16L28.04 6.16L28.04 3.92ZM29.23 6.16L32.21 12.32L30.77 15.68L33.57 15.68L37.77 6.16L34.97 6.16L33.57 9.66L32.17 6.16ZM38.26 1.68L38.26 12.60L40.99 12.60L40.99 1.68ZM42.18 3.89C42.18 4.29 42.33 4.62 42.62 4.88C42.91 5.14 43.26 5.26 43.69 5.26C44.12 5.26 44.48 5.14 44.77 4.88C45.06 4.62 45.21 4.29 45.21 3.89C45.21 3.49 45.06 3.16 44.77 2.90C44.48 2.65 44.12 2.52 43.69 2.52C43.26 2.52 42.91 2.65 42.62 2.90C42.33 3.16 42.18 3.49 42.18 3.89ZM42.38 6.16L42.38 12.60L45.00 12.60L45.00 6.16ZM49.13 8.68C49.13 8.06 49.39 7.76 49.92 7.76C50.19 7.76 50.36 7.83 50.46 7.98C50.55 8.13 50.60 8.36 50.60 8.68L50.60 12.60L53.47 12.60L53.47 8.26C53.47 7.53 53.28 6.97 52.92 6.59C52.56 6.20 51.95 6.01 51.11 6.01C50.19 6.01 49.53 6.38 49.13 7.13L49.13 6.16L46.40 6.16L46.40 12.60L49.13 12.60ZM54.87 1.68L54.87 12.60L57.46 12.60L57.46 9.25L60.12 12.60L63.27 12.60L60.26 8.82L62.99 6.16L59.78 6.16L57.46 8.43L57.46 1.68ZM68.26 8.41L66.37 8.41C66.50 7.84 66.84 7.56 67.37 7.56C67.87 7.56 68.17 7.84 68.26 8.41ZM66.33 9.94L71.15 9.94C71.17 9.76 71.18 9.53 71.18 9.25C71.18 8.23 70.85 7.42 70.19 6.83C69.53 6.24 68.61 5.95 67.44 5.95C66.24 5.95 65.30 6.27 64.60 6.92C63.90 7.56 63.55 8.38 63.55 9.38C63.55 10.39 63.88 11.20 64.55 11.82C65.21 12.43 66.18 12.74 67.44 12.74C68.41 12.74 69.22 12.56 69.87 12.21C70.53 11.85 70.98 11.34 71.23 10.68L68.75 10.29C68.69 10.54 68.55 10.71 68.33 10.79C68.12 10.88 67.82 10.92 67.44 10.92C66.81 10.92 66.44 10.59 66.33 9.94ZM77.38 8.93L78.48 6.58C78.14 6.16 77.62 5.95 76.93 5.95C76.15 5.95 75.51 6.30 75.01 7.01L75.01 6.16L72.35 6.16L72.35 12.60L75.01 12.60L75.01 9.66C75.01 9.22 75.12 8.91 75.34 8.74C75.56 8.56 75.88 8.47 76.30 8.47C76.76 8.47 77.12 8.62 77.38 8.93Z"></path></g><!----><!----></svg>